<svg fill="none" height="181" viewBox="0 0 1057 181" width="1057" xmlns="http://www.w3.org/2000/svg" xmlns:xlink="http://www.w3.org/1999/xlink"><linearGradient id="a" gradientUnits="userSpaceOnUse" x1="0" x2="1057" y1="110.41" y2="110.41"><stop offset="0" stop-color="#1a81fa"/><stop offset="1" stop-color="#8854fc"/></linearGradient><clipPath id="b"><path d="m401 61h254v59h-254z"/></clipPath><rect fill="url(#a)" height="181" rx="16" width="1057"/><g clip-path="url(#b)" fill="#fff"><path d="m654.977 90.5c0-.6731-.185-1.323-.531-1.88-.37-.5571-.878-.9981-1.502-1.2766h-.138l-22.335-12.2085c-.592-.3401-1.262-.517-1.944-.5129-.681.004-1.349.189-1.937.5361-.577.3482-1.085.8356-1.409 1.4391-.346.6034-.508 1.2765-.508 1.9496-.023.8124.231 1.6247.716 2.2978s1.155 1.1605 1.941 1.4158l15.428 8.3324-15.405 8.2628c-.786.2321-1.455.7427-1.941 1.3924-.485.673-.739 1.462-.716 2.298 0 .696.162 1.369.509 1.95.346.603.831 1.091 1.409 1.439.577.348 1.247.534 1.94.534s1.362-.186 1.94-.511l22.335-12.139h.092c.624-.2553 1.155-.6963 1.525-1.2765.369-.5571.577-1.2302.554-1.9032zm-33.168-.0232c-.002-.8182-.326-1.6023-.901-2.1808-.576-.5785-1.356-.9043-2.171-.9062h-.739c-.771-.0024-1.51-.3113-2.055-.8592s-.853-1.2904-.855-2.0652v-15.8989c0-.9981-.185-1.9729-.577-2.9013-.37-.9052-.924-1.7407-1.617-2.4602-.693-.6963-1.525-1.2534-2.425-1.648-.901-.3945-1.917-.557-2.911-.557h-5.774c-.647 0-1.27.2089-1.778.5803-.509.3945-.878.9516-1.04 1.555-.162.6267-.115 1.2766.139 1.88.254.6035.693 1.0909 1.27 1.3926.439.2321.924.3714 1.409.3714h1.802c.385-.0021.768.0726 1.125.22s.681.3644.954.6386c.272.2741.488.5999.635.9585s.221.7429.219 1.1306v14.3902c0 1.4855.531 2.9245 1.501 4.0618s2.287 1.88 3.765 2.0889c.508.0928 1.016.1393 1.525.1625v.1392c-.509 0-1.017.0697-1.525.1625-1.455.2321-2.795.9748-3.765 2.0889-.97 1.1373-1.501 2.5531-1.501 4.0618v14.3902c.002.388-.072.772-.219 1.131-.147.358-.363.684-.635.958-.273.274-.597.491-.954.639-.357.147-.74.222-1.125.22h-1.802c-.568.004-1.123.173-1.598.486s-.85.756-1.081 1.278c-.254.603-.301 1.253-.139 1.88.162.626.531 1.183 1.04 1.555.508.394 1.131.603 1.778.58h5.774c.994 0 1.964-.186 2.864-.58.91-.385 1.735-.945 2.428-1.65.694-.705 1.242-1.54 1.614-2.458.37-.906.578-1.904.578-2.902v-15.8754c0-.7891.3-1.5319.854-2.0657.555-.557 1.294-.8588 2.056-.8588h.739c.814-.0018 1.595-.3276 2.17-.9061.576-.5785.9-1.3627.902-2.1808v-.0464z"/><path d="m429.825 74.1832c-.924-.2089-1.917-.1161-2.771.3017-.855.4178-1.571 1.0909-2.01 1.9496l-7.968 16.7809-7.969-16.7809v-.0928l-.115-.2321-.116-.1393-.115-.1856-.139-.1857-.162-.1393-.161-.1857-.116-.116-.185-.1625-.231-.0928-.161-.1393-.093-.1392h-.184l-.231-.1161h-.116l-.254-.116h-2.633l-.277.0928h-.116l-.323.116-.346.0233h-.116l-.231.1856-.138.0929-.185.1624-.116.1161-.161.1625-.116.1392-.162.1857-.115.1393-.162.2321v.116l-.185.2553v.0929l-.115.3017v.0928l-.231.2786v2.7155l.115.2786 11.849 24.8576c.324.766.878 1.393 1.571 1.857s1.501.696 2.31.72c.831 0 1.64-.209 2.333-.65.692-.441 1.247-1.068 1.616-1.834l11.849-24.9506c.324-.5803.485-1.207.531-1.8801-.023-.9516-.369-1.88-.97-2.6227-.6-.7427-1.432-1.2533-2.379-1.4854zm57.559-.1857c-2.564 0-5.128.5802-7.438 1.7175-2.309 1.1373-4.319 2.8084-5.89 4.8509-1.569 2.054-2.644 4.4452-3.141 6.9863-.485 2.5299-.392 5.1526.277 7.6593.67 2.5067 1.917 4.8045 3.627 6.7305 1.709 1.927 3.834 3.459 6.236 4.41 2.379.975 4.966 1.37 7.53 1.184 2.563-.186 5.058-.975 7.275-2.298.437.871 1.154 1.567 2.035 1.976.88.409 1.873.506 2.816.276.943-.229 1.781-.77 2.381-1.537.599-.766.924-1.713.922-2.688v-12.5098c0-4.4332-1.756-8.7038-4.851-11.8372-3.095-3.1333-7.368-4.8973-11.779-4.9205zm7.46 19.9142c-.416.9748-.993 1.88-1.755 2.6228-.74.7427-1.64 1.3461-2.61 1.7639s-2.033.6267-3.095.6267c-1.594 0-3.165-.4874-4.481-1.3694-1.34-.882-2.356-2.1585-2.98-3.644-.6-1.4854-.762-3.1101-.462-4.6884.324-1.5783 1.086-3.0173 2.218-4.1546 1.131-1.1373 2.563-1.9032 4.134-2.2282 1.571-.3017 3.187-.1625 4.666.4642 1.478.6035 2.748 1.6479 3.626 2.9941s1.363 2.9013 1.363 4.5028c0 1.0676-.208 2.1353-.624 3.1101zm-44.347-19.9142c-2.563 0-5.104.6034-7.414 1.7639-2.31 1.1606-4.296 2.8317-5.867 4.8742-1.547 2.0657-2.61 4.4563-3.095 6.9862s-.392 5.1526.301 7.6361 1.917 4.7811 3.649 6.7081c1.732 1.926 3.834 3.435 6.236 4.41 2.379.974 4.966 1.369 7.53 1.16 2.564-.186 5.035-.975 7.252-2.298.437.871 1.154 1.567 2.035 1.976s1.873.506 2.816.276c.943-.229 1.782-.77 2.381-1.537.599-.766.924-1.713.922-2.688v-12.5098c0-4.4564-1.756-8.727-4.897-11.8836-3.17-3.1089-7.419-4.8568-11.849-4.8741zm7.484 19.9142c-.416.9748-.993 1.88-1.756 2.646-.762.7427-1.639 1.3462-2.633 1.7639-.993.4178-2.032.6267-3.095.6035-1.593 0-3.164-.4874-4.481-1.3694-1.316-.9052-2.355-2.1585-2.979-3.644-.601-1.4854-.762-3.1101-.462-4.6884.323-1.5783 1.086-3.0173 2.217-4.1546 1.132-1.1373 2.564-1.9032 4.135-2.2282 1.57-.3017 3.187-.1392 4.665.4642 1.479.6267 2.726 1.6479 3.627 2.9941.877 1.3462 1.362 2.9013 1.362 4.5028 0 1.0676-.208 2.1353-.6 3.1101zm78.322-32.3316c-1.143.0061-2.238.4653-3.047 1.278-.809.8126-1.266 1.913-1.272 3.0623v10.2124c-2.562-1.4272-5.455-2.1479-8.384-2.0889-2.933.0464-5.797.882-8.315 2.3906-2.513 1.5146-4.584 3.6681-6.005 6.2435-1.428 2.5732-2.153 5.4798-2.102 8.4253.044 2.944.856 5.8249 2.356 8.3543s3.634 4.6184 6.19 6.0594c2.564 1.439 5.451 2.158 8.384 2.135 2.933-.046 5.798-.859 8.315-2.367.437.87 1.154 1.566 2.035 1.975.88.409 1.873.506 2.816.276.942-.229 1.781-.77 2.38-1.536.6-.767.925-1.713.922-2.688v-12.5568c0-.2786.024-.5339 0-.8124v-24.0456c0-1.1373-.462-2.2514-1.27-3.0638-.393-.3977-.861-.7132-1.377-.9284-.515-.2151-1.068-.3255-1.626-.3249zm-6.698 34.9776c-1.508 1.5128-3.551 2.364-5.682 2.3674l-.023.0232c-1.593 0-3.164-.4874-4.481-1.3694-1.339-.882-2.356-2.1585-2.979-3.644-.601-1.4854-.762-3.1101-.462-4.6884s1.085-3.0173 2.217-4.1546 2.564-1.9032 4.135-2.2282c1.57-.3249 3.187-.1624 4.665.4642 1.478.6035 2.749 1.6479 3.627 2.9941.877 1.3462 1.362 2.9013 1.362 4.5028-.023 2.1585-.854 4.201-2.379 5.7329zm22.058-26.3435c2.379 0 4.296-1.9264 4.296-4.317 0-2.3907-1.917-4.3171-4.296-4.3171s-4.296 1.9264-4.296 4.3171c0 2.3906 1.917 4.317 4.296 4.317zm37.81 8.611c-2.49-2.4934-5.862-3.8952-9.377-3.8993-2.98 0-5.867 1.0212-8.2 2.878-.135-1.0885-.679-2.0839-1.521-2.7828-.841-.6988-1.916-1.0484-3.006-.9772-1.085.0696-2.125.557-2.864 1.3462-.739.7891-1.178 1.8568-1.178 2.9477v24.9742c.006 1.149.463 2.249 1.272 3.062s1.904 1.272 3.047 1.278c1.144-.006 2.239-.465 3.048-1.278.808-.813 1.265-1.913 1.272-3.062v-13.1371c0-1.7175.669-3.3422 1.87-4.5492 1.203-1.2024 2.831-1.8775 4.527-1.8775 1.697 0 3.325.6751 4.528 1.8775 1.201 1.207 1.87 2.8549 1.87 4.5492v13.1371c.006 1.149.463 2.249 1.272 3.062s1.904 1.272 3.048 1.278c1.154 0 2.24-.464 3.048-1.276.809-.813 1.271-1.904 1.271-3.064v-15.0635c-.043-3.5342-1.451-6.9133-3.927-9.4233zm-37.718-4.8277c-1.143.0061-2.238.4653-3.047 1.278-.809.8126-1.266 1.913-1.272 3.0623v24.9742c0 .557.116 1.137.324 1.648.208.534.531.998.924 1.392.498.498 1.11.864 1.783 1.068.672.204 1.384.239 2.073.101.689-.137 1.334-.443 1.877-.889.544-.447.971-1.021 1.242-1.672.208-.534.323-1.091.323-1.648v-24.9742c0-1.1373-.462-2.2514-1.27-3.0638-.739-.8123-1.825-1.2765-2.957-1.2765z"/></g></svg>