<svg fill="none" height="263" viewBox="0 0 1057 263" width="1057" xmlns="http://www.w3.org/2000/svg" xmlns:xlink="http://www.w3.org/1999/xlink"><linearGradient id="a" gradientUnits="userSpaceOnUse" x1="0" x2="1057" y1="160.43" y2="160.43"><stop offset="0" stop-color="#1a81fa"/><stop offset="1" stop-color="#8854fc"/></linearGradient><rect fill="url(#a)" height="263" rx="16" width="1057"/><g fill="#fff"><path d="m706.967 101.5c0-.947-.26-1.8611-.748-2.6448-.521-.7836-1.237-1.404-2.116-1.7958h-.196l-31.48-17.1747c-.833-.4784-1.778-.7273-2.739-.7216-.96.0057-1.902.2659-2.73.7543-.814.4898-1.53 1.1754-1.986 2.0244-.488.8489-.716 1.7958-.716 2.7427-.032 1.1428.326 2.2856 1.009 3.2325.684.9469 1.628 1.6326 2.735 1.9917l21.746 11.7223-21.714 11.624c-1.106.326-2.05 1.044-2.734 1.959-.684.946-1.042 2.057-1.009 3.232 0 .98.228 1.927.716 2.743.488.849 1.172 1.534 1.986 2.024s1.758.751 2.734.751c.977 0 1.921-.261 2.735-.718l31.48-17.077h.13c.879-.359 1.628-.979 2.149-1.796.521-.783.814-1.73.781-2.677zm-46.748-.033c-.002-1.151-.459-2.2537-1.271-3.0675-.811-.8139-1.911-1.2722-3.058-1.2748h-1.042c-1.087-.0034-2.128-.438-2.897-1.2088-.768-.7708-1.201-1.8152-1.205-2.9053v-22.3662c0-1.404-.26-2.7754-.814-4.0815-.521-1.2734-1.302-2.4488-2.279-3.461-.976-.9796-2.148-1.7632-3.418-2.3183-1.269-.555-2.702-.7836-4.102-.7836h-8.138c-.912 0-1.791.2939-2.507.8163-.716.5551-1.237 1.3387-1.465 2.1876-.228.8816-.163 1.7959.196 2.6448.358.8489.976 1.5346 1.79 1.9591.619.3265 1.302.5224 1.986.5224h2.539c.544-.003 1.083.1022 1.586.3095s.96.5126 1.344.8983c.385.3857.689.844.896 1.3485s.311 1.045.308 1.5904v20.2439c0 2.0897.749 4.1141 2.116 5.7141 1.368 1.5999 3.223 2.6451 5.307 2.9381.716.131 1.432.196 2.148.229v.196c-.716 0-1.432.098-2.148.229-2.051.326-3.939 1.371-5.307 2.938-1.367 1.6-2.116 3.592-2.116 5.714v20.244c.003.545-.101 1.086-.308 1.591-.207.504-.511.962-.896 1.348-.384.386-.841.691-1.344.898-.503.208-1.042.313-1.586.31h-2.539c-.801.006-1.582.244-2.252.684s-1.199 1.064-1.524 1.797c-.359.849-.424 1.763-.196 2.645s.749 1.665 1.465 2.188c.716.555 1.595.849 2.507.816h8.138c1.4 0 2.768-.261 4.037-.816 1.282-.541 2.445-1.33 3.422-2.321.978-.992 1.751-2.167 2.275-3.459.521-1.273.814-2.677.814-4.081v-22.334c0-1.11.423-2.155 1.205-2.906.781-.783 1.823-1.208 2.897-1.208h1.042c1.147-.002 2.247-.461 3.058-1.274.812-.814 1.269-1.917 1.271-3.068v-.066z"/><path d="m389.628 78.5458c-1.302-.2938-2.702-.1632-3.907.4245-1.204.5877-2.213 1.5346-2.832 2.7427l-11.231 23.607-11.231-23.607v-.1306l-.163-.3265-.163-.1959-.163-.2612-.195-.2612-.228-.196-.228-.2612-.163-.1632-.26-.2286-.326-.1306-.227-.1959-.131-.1959h-.26l-.326-.1633h-.162l-.359-.1632h-3.711l-.39.1306h-.163l-.456.1632-.488.0327h-.163l-.326.2612-.195.1306-.26.2286-.163.1632-.228.2286-.163.1959-.228.2612-.162.1959-.228.3265v.1633l-.261.3592v.1306l-.162.4244v.1306l-.326.3919v3.8202l.163.3918 16.7 34.9701c.456 1.077 1.237 1.959 2.214 2.612.976.653 2.116.979 3.255 1.012 1.172 0 2.312-.294 3.288-.914.977-.621 1.758-1.502 2.279-2.58l16.7-35.1001c.456-.8163.684-1.6979.749-2.6448-.032-1.3387-.521-2.6447-1.367-3.6896-.847-1.0448-2.018-1.7632-3.353-2.0897zm81.125-.2612c-3.613 0-7.227.8163-10.482 2.4162-3.256 1.5999-6.088 3.9508-8.302 6.8242-2.212 2.8895-3.727 6.2533-4.427 9.8281-.684 3.5589-.553 7.2489.391 10.7749s2.702 6.759 5.111 9.469 5.404 4.865 8.789 6.204c3.353 1.371 6.999 1.926 10.613 1.665s7.129-1.371 10.255-3.233c.615 1.225 1.626 2.205 2.867 2.78 1.242.575 2.64.711 3.969.388 1.329-.322 2.511-1.083 3.356-2.161.845-1.079 1.302-2.411 1.299-3.782v-17.599c0-6.2365-2.474-12.2443-6.836-16.6523-4.362-4.4079-10.385-6.8894-16.603-6.9221zm10.515 28.0154c-.586 1.371-1.4 2.644-2.474 3.689-1.042 1.045-2.311 1.894-3.679 2.482-1.367.587-2.864.881-4.362.881-2.246 0-4.46-.685-6.315-1.926-1.888-1.241-3.321-3.037-4.2-5.126-.846-2.09-1.074-4.376-.651-6.596.456-2.2203 1.53-4.2447 3.125-5.8447 1.595-1.5999 3.614-2.6774 5.828-3.1345 2.213-.4245 4.492-.2286 6.575.653 2.084.849 3.874 2.3183 5.112 4.2121 1.237 1.8938 1.92 4.0814 1.92 6.3341 0 1.502-.293 3.004-.879 4.376zm-62.504-28.0154c-3.614 0-7.195.8489-10.45 2.4815s-6.055 3.9835-8.269 6.8568c-2.181 2.906-3.678 6.2691-4.362 9.8281s-.554 7.249.423 10.742c.977 3.494 2.702 6.727 5.144 9.437 2.441 2.71 5.404 4.832 8.789 6.203 3.353 1.372 7 1.927 10.613 1.633 3.614-.261 7.097-1.371 10.222-3.233.616 1.225 1.626 2.205 2.868 2.78 1.241.575 2.64.711 3.969.388 1.329-.322 2.511-1.083 3.355-2.161.845-1.079 1.303-2.411 1.3-3.782v-17.599c0-6.2691-2.474-12.277-6.902-16.7176-4.468-4.3735-10.457-6.8325-16.7-6.8568zm10.548 28.0154c-.586 1.371-1.4 2.644-2.475 3.722-1.074 1.045-2.311 1.894-3.711 2.481-1.4.588-2.865.882-4.362.849-2.246 0-4.46-.685-6.316-1.926-1.855-1.274-3.32-3.037-4.199-5.126-.847-2.09-1.074-4.376-.651-6.596.456-2.2203 1.53-4.2447 3.125-5.8447 1.595-1.5999 3.614-2.6774 5.827-3.1345 2.214-.4245 4.493-.1959 6.576.653 2.084.8816 3.842 2.3183 5.111 4.2121 1.237 1.8938 1.921 4.0814 1.921 6.3341 0 1.502-.293 3.004-.846 4.376zm110.391-45.4839c-1.612.0086-3.155.6546-4.295 1.7978s-1.784 2.6913-1.792 4.308v14.3666c-3.612-2.0077-7.689-3.0216-11.818-2.9386-4.134.0653-8.171 1.2408-11.719 3.3631-3.542 2.1307-6.462 5.1602-8.464 8.7832-2.012 3.6199-3.034 7.7089-2.963 11.8528.062 4.141 1.208 8.194 3.321 11.752 2.114 3.559 5.122 6.498 8.724 8.524 3.614 2.025 7.683 3.037 11.818 3.004 4.134-.065 8.171-1.208 11.719-3.33.616 1.224 1.626 2.204 2.868 2.779 1.241.575 2.64.712 3.969.388 1.329-.322 2.511-1.083 3.355-2.161.845-1.078 1.303-2.41 1.3-3.782v-17.664c0-.392.032-.751 0-1.143v-33.8268c0-1.5999-.651-3.1671-1.791-4.3099-.554-.5596-1.214-1.0035-1.94-1.3061s-1.505-.458-2.292-.4571zm-9.44 49.2059c-2.126 2.128-5.005 3.325-8.009 3.33l-.032.033c-2.247 0-4.46-.686-6.316-1.927-1.888-1.24-3.32-3.036-4.199-5.126-.847-2.089-1.075-4.375-.652-6.5954.424-2.2203 1.531-4.2447 3.126-5.8446s3.613-2.6774 5.827-3.1345c2.214-.4572 4.492-.2286 6.576.653 2.083.8489 3.874 2.3182 5.111 4.212s1.921 4.0815 1.921 6.3345c-.033 3.036-1.205 5.91-3.353 8.065zm31.089-37.0596c3.353 0 6.055-2.7101 6.055-6.0732s-2.702-6.0731-6.055-6.0731-6.055 2.71-6.055 6.0731 2.702 6.0732 6.055 6.0732zm53.291 12.1137c-3.51-3.5076-8.262-5.4797-13.217-5.4854-4.199 0-8.269 1.4366-11.557 4.0487-.19-1.5312-.957-2.9316-2.143-3.9147-1.186-.9832-2.702-1.475-4.237-1.3748-1.53.098-2.995.7836-4.037 1.8938-1.042 1.1101-1.66 2.6121-1.66 4.1467v35.1326c.008 1.617.653 3.165 1.792 4.308 1.14 1.144 2.684 1.79 4.296 1.798 1.611-.008 3.155-.654 4.295-1.798 1.139-1.143 1.784-2.691 1.792-4.308v-18.48c0-2.4165.944-4.7021 2.637-6.4 1.695-1.6916 3.989-2.6412 6.381-2.6412 2.391 0 4.685.9496 6.38 2.6412 1.693 1.6979 2.637 4.0161 2.637 6.4v18.48c.009 1.617.653 3.165 1.793 4.308 1.14 1.144 2.683 1.79 4.295 1.798 1.628 0 3.158-.653 4.297-1.796 1.139-1.142 1.791-2.677 1.791-4.31v-21.1904c-.06-4.9717-2.045-9.7255-5.535-13.2565zm-53.161-6.7915c-1.612.0086-3.155.6546-4.295 1.7978s-1.784 2.6913-1.793 4.308v35.1326c0 .784.163 1.6.456 2.319.293.751.749 1.404 1.302 1.959.703.699 1.566 1.215 2.514 1.502.947.287 1.951.336 2.922.142.971-.193 1.88-.623 2.646-1.251.767-.629 1.367-1.436 1.75-2.352.293-.751.456-1.535.456-2.319v-35.1326c0-1.5999-.652-3.1672-1.791-4.31-1.042-1.1428-2.572-1.7958-4.167-1.7958z"/><path d="m232.352 183.824h6.404v18.176h2.466v-18.176h6.403v-2.188h-15.273z" fill-opacity=".8"/><path d="m253.459 192.813c0-2.665 1.7-4.177 4.017-4.177 2.208 0 3.54 1.392 3.54 3.819v9.545h2.347v-9.705c0-3.927-2.088-5.767-5.211-5.767-2.406 0-3.778 1.005-4.494 2.586h-.199v-7.478h-2.346v20.364h2.346z" fill-opacity=".8"/><path d="m274.059 202.318c3.102 0 5.369-1.551 6.085-3.858l-2.267-.636c-.596 1.591-1.979 2.386-3.818 2.386-2.754 0-4.653-1.78-4.763-5.051h11.087v-.994c0-5.688-3.381-7.637-6.563-7.637-4.136 0-6.88 3.262-6.88 7.955s2.704 7.835 7.119 7.835zm-4.763-9.187c.159-2.377 1.84-4.495 4.524-4.495 2.546 0 4.176 1.909 4.176 4.495z" fill-opacity=".8"/><path d="m291.827 202h2.347v-9.545c0-2.238 1.631-3.819 3.46-3.819 1.78 0 3.023 1.164 3.023 2.904v10.46h2.386v-9.943c0-1.969 1.233-3.421 3.381-3.421 1.67 0 3.102.885 3.102 3.142v10.222h2.347v-10.222c0-3.589-1.929-5.25-4.654-5.25-2.187 0-3.788 1.005-4.573 2.586h-.159c-.756-1.631-2.089-2.586-4.097-2.586-1.989 0-3.46.955-4.097 2.586h-.199v-2.387h-2.267z" fill-opacity=".8"/><path d="m322.368 202.318c4.136 0 6.92-3.142 6.92-7.875 0-4.773-2.784-7.915-6.92-7.915s-6.921 3.142-6.921 7.915c0 4.733 2.785 7.875 6.921 7.875zm0-2.108c-3.142 0-4.574-2.704-4.574-5.767 0-3.062 1.432-5.807 4.574-5.807s4.574 2.745 4.574 5.807c0 3.063-1.432 5.767-4.574 5.767z" fill-opacity=".8"/><path d="m338.637 202.318c2.944 0 3.938-1.829 4.455-2.665h.278v2.347h2.267v-20.364h-2.346v7.517h-.199c-.517-.795-1.432-2.625-4.415-2.625-3.858 0-6.523 3.063-6.523 7.875 0 4.853 2.665 7.915 6.483 7.915zm.319-2.108c-2.944 0-4.455-2.585-4.455-5.846 0-3.222 1.472-5.728 4.455-5.728 2.863 0 4.375 2.307 4.375 5.728 0 3.46-1.552 5.846-4.375 5.846z" fill-opacity=".8"/><path d="m356.664 202.318c3.103 0 5.37-1.551 6.086-3.858l-2.267-.636c-.597 1.591-1.979 2.386-3.819 2.386-2.754 0-4.653-1.78-4.762-5.051h11.086v-.994c0-5.688-3.38-7.637-6.562-7.637-4.137 0-6.881 3.262-6.881 7.955s2.705 7.835 7.119 7.835zm-4.762-9.187c.159-2.377 1.839-4.495 4.524-4.495 2.545 0 4.176 1.909 4.176 4.495z" fill-opacity=".8"/><path d="m366.558 202h2.346v-9.665c0-2.068 1.631-3.579 3.858-3.579.627 0 1.273.119 1.432.159v-2.387c-.268-.019-.885-.039-1.233-.039-1.829 0-3.42 1.034-3.977 2.545h-.159v-2.307h-2.267z" fill-opacity=".8"/><path d="m379.322 192.813c0-2.665 1.651-4.177 3.898-4.177 2.178 0 3.5 1.422 3.5 3.819v9.545h2.347v-9.705c0-3.897-2.078-5.767-5.171-5.767-2.307 0-3.738 1.035-4.454 2.586h-.199v-2.387h-2.267v15.273h2.346z" fill-opacity=".8"/><path d="m404.69 202h2.307l3.341-11.733h.238l3.341 11.733h2.307l4.654-15.273h-2.466l-3.302 11.654h-.159l-3.221-11.654h-2.506l-3.261 11.693h-.159l-3.301-11.693h-2.466z" fill-opacity=".8"/><path d="m429.864 202.318c3.102 0 5.369-1.551 6.085-3.858l-2.267-.636c-.597 1.591-1.979 2.386-3.818 2.386-2.755 0-4.654-1.78-4.763-5.051h11.087v-.994c0-5.688-3.381-7.637-6.563-7.637-4.136 0-6.881 3.262-6.881 7.955s2.705 7.835 7.12 7.835zm-4.763-9.187c.159-2.377 1.839-4.495 4.524-4.495 2.545 0 4.176 1.909 4.176 4.495z" fill-opacity=".8"/><path d="m440.075 202h2.267v-2.347h.279c.517.836 1.511 2.665 4.454 2.665 3.818 0 6.483-3.062 6.483-7.915 0-4.812-2.665-7.875-6.522-7.875-2.983 0-3.898 1.83-4.415 2.625h-.199v-7.517h-2.347zm2.307-7.636c0-3.421 1.511-5.728 4.375-5.728 2.983 0 4.455 2.506 4.455 5.728 0 3.261-1.512 5.846-4.455 5.846-2.824 0-4.375-2.386-4.375-5.846z" fill-opacity=".8"/><path d="m469.517 202.358c2.665 0 4.057-1.432 4.534-2.426h.119v2.068h2.347v-10.062c0-4.853-3.699-5.41-5.648-5.41-2.306 0-4.931.796-6.125 3.58l2.228.795c.517-1.113 1.74-2.306 3.977-2.306 2.158 0 3.221 1.143 3.221 3.102v.079c0 1.134-1.153 1.035-3.937 1.392-2.834.368-5.926.995-5.926 4.495 0 2.983 2.307 4.693 5.21 4.693zm.358-2.108c-1.869 0-3.222-.835-3.222-2.466 0-1.79 1.631-2.346 3.461-2.585.994-.119 3.659-.398 4.056-.875v2.148c0 1.909-1.511 3.778-4.295 3.778z" fill-opacity=".8"/><path d="m480.8 207.727h2.347v-8.074h.199c.517.836 1.511 2.665 4.454 2.665 3.818 0 6.483-3.062 6.483-7.915 0-4.812-2.665-7.875-6.523-7.875-2.983 0-3.897 1.83-4.414 2.625h-.279v-2.426h-2.267zm2.307-13.363c0-3.421 1.511-5.728 4.375-5.728 2.983 0 4.454 2.506 4.454 5.728 0 3.261-1.511 5.846-4.454 5.846-2.824 0-4.375-2.386-4.375-5.846z" fill-opacity=".8"/><path d="m497.863 207.727h2.346v-8.074h.199c.517.836 1.511 2.665 4.455 2.665 3.818 0 6.483-3.062 6.483-7.915 0-4.812-2.665-7.875-6.523-7.875-2.983 0-3.898 1.83-4.415 2.625h-.278v-2.426h-2.267zm2.306-13.363c0-3.421 1.512-5.728 4.375-5.728 2.983 0 4.455 2.506 4.455 5.728 0 3.261-1.511 5.846-4.455 5.846-2.823 0-4.375-2.386-4.375-5.846z" fill-opacity=".8"/><path d="m517.272 181.636h-2.347v20.364h2.347z" fill-opacity=".8"/><path d="m521.57 202h2.346v-15.273h-2.346zm1.193-17.818c.915 0 1.67-.716 1.67-1.591s-.755-1.591-1.67-1.591-1.671.716-1.671 1.591.756 1.591 1.671 1.591z" fill-opacity=".8"/><path d="m534.419 202.318c3.38 0 5.608-2.068 6.005-4.773h-2.346c-.438 1.671-1.83 2.665-3.659 2.665-2.784 0-4.574-2.307-4.574-5.846 0-3.461 1.829-5.728 4.574-5.728 2.068 0 3.301 1.273 3.659 2.665h2.346c-.397-2.863-2.823-4.773-6.045-4.773-4.136 0-6.881 3.262-6.881 7.915 0 4.574 2.625 7.875 6.921 7.875z" fill-opacity=".8"/><path d="m548.349 202.358c2.665 0 4.057-1.432 4.534-2.426h.12v2.068h2.346v-10.062c0-4.853-3.699-5.41-5.648-5.41-2.306 0-4.931.796-6.125 3.58l2.228.795c.517-1.113 1.74-2.306 3.977-2.306 2.158 0 3.222 1.143 3.222 3.102v.079c0 1.134-1.154 1.035-3.938 1.392-2.834.368-5.926.995-5.926 4.495 0 2.983 2.307 4.693 5.21 4.693zm.358-2.108c-1.869 0-3.222-.835-3.222-2.466 0-1.79 1.631-2.346 3.461-2.585.994-.119 3.659-.398 4.057-.875v2.148c0 1.909-1.512 3.778-4.296 3.778z" fill-opacity=".8"/><path d="m566.274 186.727h-3.261v-3.659h-2.347v3.659h-2.307v1.989h2.307v9.545c0 2.665 2.148 3.938 4.137 3.938.875 0 1.431-.159 1.75-.279l-.478-2.107c-.199.039-.517.119-1.034.119-1.034 0-2.028-.318-2.028-2.307v-8.909h3.261z" fill-opacity=".8"/><path d="m569.804 202h2.347v-15.273h-2.347zm1.193-17.818c.915 0 1.671-.716 1.671-1.591s-.756-1.591-1.671-1.591-1.67.716-1.67 1.591.755 1.591 1.67 1.591z" fill-opacity=".8"/><path d="m582.653 202.318c4.136 0 6.921-3.142 6.921-7.875 0-4.773-2.785-7.915-6.921-7.915s-6.92 3.142-6.92 7.915c0 4.733 2.784 7.875 6.92 7.875zm0-2.108c-3.142 0-4.574-2.704-4.574-5.767 0-3.062 1.432-5.807 4.574-5.807s4.574 2.745 4.574 5.807c0 3.063-1.432 5.767-4.574 5.767z" fill-opacity=".8"/><path d="m595.502 192.813c0-2.665 1.651-4.177 3.898-4.177 2.177 0 3.5 1.422 3.5 3.819v9.545h2.346v-9.705c0-3.897-2.078-5.767-5.17-5.767-2.307 0-3.739 1.035-4.455 2.586h-.198v-2.387h-2.267v15.273h2.346z" fill-opacity=".8"/><path d="m617.409 207.727h2.347v-8.074h.199c.517.836 1.511 2.665 4.454 2.665 3.819 0 6.483-3.062 6.483-7.915 0-4.812-2.664-7.875-6.522-7.875-2.983 0-3.898 1.83-4.415 2.625h-.278v-2.426h-2.268zm2.307-13.363c0-3.421 1.512-5.728 4.375-5.728 2.983 0 4.455 2.506 4.455 5.728 0 3.261-1.512 5.846-4.455 5.846-2.824 0-4.375-2.386-4.375-5.846z" fill-opacity=".8"/><path d="m636.819 181.636h-2.347v20.364h2.347z" fill-opacity=".8"/><path d="m645.611 202.358c2.665 0 4.057-1.432 4.534-2.426h.119v2.068h2.347v-10.062c0-4.853-3.699-5.41-5.648-5.41-2.307 0-4.932.796-6.125 3.58l2.227.795c.517-1.113 1.74-2.306 3.978-2.306 2.157 0 3.221 1.143 3.221 3.102v.079c0 1.134-1.153 1.035-3.937 1.392-2.834.368-5.926.995-5.926 4.495 0 2.983 2.306 4.693 5.21 4.693zm.358-2.108c-1.87 0-3.222-.835-3.222-2.466 0-1.79 1.631-2.346 3.46-2.585.995-.119 3.659-.398 4.057-.875v2.148c0 1.909-1.511 3.778-4.295 3.778z" fill-opacity=".8"/><path d="m663.536 186.727h-3.261v-3.659h-2.347v3.659h-2.307v1.989h2.307v9.545c0 2.665 2.148 3.938 4.136 3.938.875 0 1.432-.159 1.75-.279l-.477-2.107c-.199.039-.517.119-1.034.119-1.034 0-2.028-.318-2.028-2.307v-8.909h3.261z" fill-opacity=".8"/><path d="m673.867 186.727h-3.421v-1.551c0-1.511.637-2.307 2.188-2.307.676 0 1.074.159 1.312.239l.677-2.028c-.358-.16-1.074-.398-2.228-.398-2.187 0-4.295 1.312-4.295 3.937v2.108h-2.466v1.989h2.466v13.284h2.346v-13.284h3.421z" fill-opacity=".8"/><path d="m682.731 202.318c4.137 0 6.921-3.142 6.921-7.875 0-4.773-2.784-7.915-6.921-7.915-4.136 0-6.92 3.142-6.92 7.915 0 4.733 2.784 7.875 6.92 7.875zm0-2.108c-3.142 0-4.574-2.704-4.574-5.767 0-3.062 1.432-5.807 4.574-5.807s4.574 2.745 4.574 5.807c0 3.063-1.432 5.767-4.574 5.767z" fill-opacity=".8"/><path d="m693.234 202h2.346v-9.665c0-2.068 1.631-3.579 3.858-3.579.627 0 1.273.119 1.432.159v-2.387c-.268-.019-.885-.039-1.233-.039-1.829 0-3.42 1.034-3.977 2.545h-.159v-2.307h-2.267z" fill-opacity=".8"/><path d="m703.652 202h2.346v-9.545c0-2.238 1.631-3.819 3.46-3.819 1.78 0 3.023 1.164 3.023 2.904v10.46h2.387v-9.943c0-1.969 1.233-3.421 3.38-3.421 1.671 0 3.103.885 3.103 3.142v10.222h2.346v-10.222c0-3.589-1.929-5.25-4.653-5.25-2.188 0-3.789 1.005-4.574 2.586h-.159c-.756-1.631-2.088-2.586-4.097-2.586-1.988 0-3.46.955-4.096 2.586h-.199v-2.387h-2.267z" fill-opacity=".8"/><path d="m742.664 186.727h-3.421v-1.551c0-1.511.637-2.307 2.188-2.307.676 0 1.074.159 1.312.239l.676-2.028c-.358-.16-1.073-.398-2.227-.398-2.187 0-4.295 1.312-4.295 3.937v2.108h-2.466v1.989h2.466v13.284h2.346v-13.284h3.421z" fill-opacity=".8"/><path d="m751.528 202.318c4.136 0 6.92-3.142 6.92-7.875 0-4.773-2.784-7.915-6.92-7.915s-6.92 3.142-6.92 7.915c0 4.733 2.784 7.875 6.92 7.875zm0-2.108c-3.142 0-4.574-2.704-4.574-5.767 0-3.062 1.432-5.807 4.574-5.807s4.574 2.745 4.574 5.807c0 3.063-1.432 5.767-4.574 5.767z" fill-opacity=".8"/><path d="m762.031 202h2.346v-9.665c0-2.068 1.631-3.579 3.858-3.579.627 0 1.273.119 1.432.159v-2.387c-.269-.019-.885-.039-1.233-.039-1.83 0-3.421 1.034-3.977 2.545h-.159v-2.307h-2.267z" fill-opacity=".8"/><path d="m788.437 181.636v14.557c0 2.536-1.213 3.898-3.341 3.898-1.939 0-3.341-1.134-3.341-2.864h-2.426c0 3.132 2.426 5.051 5.767 5.051 3.54 0 5.807-2.177 5.807-6.085v-14.557z" fill-opacity=".8"/><path d="m800.021 202.358c2.665 0 4.057-1.432 4.534-2.426h.119v2.068h2.347v-10.062c0-4.853-3.699-5.41-5.648-5.41-2.307 0-4.932.796-6.125 3.58l2.228.795c.517-1.113 1.74-2.306 3.977-2.306 2.157 0 3.221 1.143 3.221 3.102v.079c0 1.134-1.153 1.035-3.937 1.392-2.834.368-5.926.995-5.926 4.495 0 2.983 2.307 4.693 5.21 4.693zm.358-2.108c-1.869 0-3.222-.835-3.222-2.466 0-1.79 1.631-2.346 3.461-2.585.994-.119 3.659-.398 4.056-.875v2.148c0 1.909-1.511 3.778-4.295 3.778z" fill-opacity=".8"/><path d="m823.246 186.727h-2.546l-4.216 12.171h-.159l-4.216-12.171h-2.545l5.648 15.273h2.386z" fill-opacity=".8"/><path d="m830.372 202.358c2.665 0 4.057-1.432 4.535-2.426h.119v2.068h2.346v-10.062c0-4.853-3.698-5.41-5.647-5.41-2.307 0-4.932.796-6.125 3.58l2.227.795c.517-1.113 1.74-2.306 3.977-2.306 2.158 0 3.222 1.143 3.222 3.102v.079c0 1.134-1.153 1.035-3.938 1.392-2.833.368-5.926.995-5.926 4.495 0 2.983 2.307 4.693 5.21 4.693zm.358-2.108c-1.869 0-3.221-.835-3.221-2.466 0-1.79 1.631-2.346 3.46-2.585.994-.119 3.659-.398 4.057-.875v2.148c0 1.909-1.511 3.778-4.296 3.778z" fill-opacity=".8"/></g></svg>